# Rhino

mtllib antenna.mtl
usemtl diffuse_0
v -2.0118248462677002 2.1601307392120361 0.44252285361289978
v -2.0118248462677002 3.3606438636779785 0.44252285361289978
v -2.0004935264587402 2.1601307392120361 0.39685490727424622
v -2.0004935264587402 3.3606438636779785 0.39685490727424622
v -2.0461616516113281 2.1601307392120361 0.38552370667457581
v -2.0461616516113281 3.3606438636779785 0.38552370667457581
v -2.057492733001709 2.1601307392120361 0.43119165301322937
v -2.057492733001709 3.3606438636779785 0.43119165301322937
v -2.0118248462677002 2.1601307392120361 0.44252285361289978
v -2.0118248462677002 3.3606438636779785 0.44252285361289978
v -2.0118248462677002 2.1601307392120361 0.44252285361289978
v -2.0004935264587402 2.1601307392120361 0.39685490727424622
v -2.0461616516113281 2.1601307392120361 0.38552370667457581
v -2.057492733001709 2.1601307392120361 0.43119165301322937
v -2.0118248462677002 3.3606438636779785 0.44252285361289978
v -2.0004935264587402 3.3606438636779785 0.39685490727424622
v -2.0461616516113281 3.3606438636779785 0.38552370667457581
v -2.057492733001709 3.3606438636779785 0.43119165301322937
vt 0 0
vt 0 1
vt 0.19822314381599426 0
vt 0.19822314381599426 1
vt 0.39644628763198853 0
vt 0.39644628763198853 1
vt 0.59466946125030518 0
vt 0.59466946125030518 1
vt 0.79289257526397705 0
vt 0.79289257526397705 1
vt 1 0.027714231982827187
vt 0.89644670486450195 0
vt 0.79289340972900391 0.027714231982827187
vt 0.89644670486450195 0.055428463965654373
vt 1 0.97228574752807617
vt 0.89644670486450195 1
vt 0.79289340972900391 0.97228574752807617
vt 0.89644670486450195 0.94457155466079712
vn 0.51601195335388184 0 0.85658138990402222
vn 0.51601195335388184 0 0.85658138990402222
vn 0.85658138990402222 0 -0.51601195335388184
vn 0.85658138990402222 0 -0.51601195335388184
vn -0.51601195335388184 0 -0.85658138990402222
vn -0.51601195335388184 0 -0.85658138990402222
vn -0.85658138990402222 0 0.51601195335388184
vn -0.85658138990402222 0 0.51601195335388184
vn 0.51601195335388184 0 0.85658138990402222
vn 0.51601195335388184 0 0.85658138990402222
vn 0 -1 0
vn 0 -1 0
vn 0 -1 0
vn 0 -1 0
vn 0 1 0
vn 0 1 0
vn 0 1 0
vn 0 1 0
f 1/1/1 3/3/3 4/4/4 2/2/2
f 3/3/3 5/5/5 6/6/6 4/4/4
f 5/5/5 7/7/7 8/8/8 6/6/6
f 7/7/7 9/9/9 10/10/10 8/8/8
f 11/11/11 14/14/14 13/13/13
f 13/13/13 12/12/12 11/11/11
f 15/15/15 17/17/17 18/18/18
f 17/17/17 15/15/15 16/16/16
