# Rhino

mtllib twist.mtl
usemtl diffuse_0
v -1.8098775148391724 1.244524359703064 -1.1178590059280396
v -1.8036245107650757 1.244524359703064 -1.2229149341583252
v -1.8074581623077393 1.0945241451263428 -1.1585044860839844
v -1.8012052774429321 1.0945241451263428 -1.26356041431427
v -1.8050389289855957 0.94452434778213501 -1.1991498470306396
v -1.7987860441207886 0.94452434778213501 -1.3042057752609253
v -1.8050389289855957 0.94452434778213501 -1.1991498470306396
v -1.7987860441207886 0.94452434778213501 -1.3042057752609253
v -2.09967041015625 0.94452434778213501 -1.2982653379440308
v -2.0934174060821533 0.94452434778213501 -1.4033212661743164
v -2.09967041015625 0.94452434778213501 -1.2982653379440308
v -2.0934174060821533 0.94452434778213501 -1.4033212661743164
v -2.0948319435119629 1.244524359703064 -1.3795561790466309
v -2.0885789394378662 1.244524359703064 -1.4846122264862061
v -2.0948319435119629 1.244524359703064 -1.3795561790466309
v -2.0885789394378662 1.244524359703064 -1.4846122264862061
v -1.9426776170730591 1.244524359703064 -1.4112893342971802
v -1.9364246129989624 1.244524359703064 -1.5163453817367554
v -1.7905235290527344 1.244524359703064 -1.4430224895477295
v -1.7842705249786377 1.244524359703064 -1.5480784177780151
v -1.7905235290527344 1.244524359703064 -1.4430224895477295
v -1.7842705249786377 1.244524359703064 -1.5480784177780151
v -1.7881370782852173 1.0945403575897217 -1.4831165075302124
v -1.7818840742111206 1.0945403575897217 -1.588172435760498
v -1.785750150680542 0.94452434778213501 -1.5232189893722534
v -1.7794971466064453 0.94452434778213501 -1.6282750368118286
v -1.785750150680542 0.94452434778213501 -1.5232189893722534
v -1.7794971466064453 0.94452434778213501 -1.6282750368118286
v -2.0803165435791016 0.94452434778213501 -1.6234288215637207
v -2.0740635395050049 0.94452434778213501 -1.7284848690032959
v -2.0803165435791016 0.94452434778213501 -1.6234288215637207
v -2.0740635395050049 0.94452434778213501 -1.7284848690032959
v -2.077897310256958 1.0945245027542114 -1.6640743017196655
v -2.0716443061828613 1.0945245027542114 -1.7691303491592407
v -2.0754780769348145 1.244524359703064 -1.7047197818756104
v -2.0692250728607178 1.244524359703064 -1.809775710105896
v -2.0754780769348145 1.244524359703064 -1.7047197818756104
v -2.0692250728607178 1.244524359703064 -1.809775710105896
v -1.7711696624755859 1.244524359703064 -1.7681859731674194
v -1.7680431604385376 1.244524359703064 -1.820713996887207
v -1.7649166584014893 1.244524359703064 -1.8732420206069946
v -1.8485852479934692 1.244524359703064 -0.46753191947937012
v -1.8423322439193726 1.244524359703064 -0.57258790731430054
v -1.8437467813491821 0.94452434778213501 -0.54882282018661499
v -1.8374937772750854 0.94452434778213501 -0.65387880802154541
v -1.8437467813491821 0.94452434778213501 -0.54882282018661499
v -1.8374937772750854 0.94452434778213501 -0.65387880802154541
v -1.9910627603530884 0.94452434778213501 -0.59838062524795532
v -1.9848097562789917 0.94452434778213501 -0.70343661308288574
v -2.138378381729126 0.94452434778213501 -0.6479383111000061
v -2.1321253776550293 0.94452434778213501 -0.75299429893493652
v -2.138378381729126 0.94452434778213501 -0.6479383111000061
v -2.1321253776550293 0.94452434778213501 -0.75299429893493652
v -2.1359591484069824 1.0945245027542114 -0.68858379125595093
v -2.1297061443328857 1.0945245027542114 -0.79363977909088135
v -2.1335399150848389 1.244524359703064 -0.7292291522026062
v -2.1272869110107422 1.244524359703064 -0.83428514003753662
v -2.1335399150848389 1.244524359703064 -0.7292291522026062
v -2.1272869110107422 1.244524359703064 -0.83428514003753662
v -1.9813854694366455 1.244524359703064 -0.76096236705780029
v -1.9751324653625488 1.244524359703064 -0.86601835489273071
v -1.8292313814163208 1.244524359703064 -0.79269546270370483
v -1.8229783773422241 1.244524359703064 -0.89775139093399048
v -1.8292313814163208 1.244524359703064 -0.79269546270370483
v -1.8229783773422241 1.244524359703064 -0.89775139093399048
v -1.8244580030441284 0.94452434778213501 -0.87289196252822876
v -1.8182049989700317 0.94452434778213501 -0.97794795036315918
v -1.8244580030441284 0.94452434778213501 -0.87289196252822876
v -1.8182049989700317 0.94452434778213501 -0.97794795036315918
v -2.1190245151519775 0.94452434778213501 -0.97310179471969604
v -2.1127715110778809 0.94452434778213501 -1.0781577825546265
v -2.1190245151519775 0.94452434778213501 -0.97310179471969604
v -2.1127715110778809 0.94452434778213501 -1.0781577825546265
v -2.116605281829834 1.0945245027542114 -1.0137473344802856
v -2.1103522777557373 1.0945245027542114 -1.1188032627105713
v -2.1141860485076904 1.244524359703064 -1.0543926954269409
v -2.1079330444335938 1.244524359703064 -1.1594486236572266
v -2.1141860485076904 1.244524359703064 -1.0543926954269409
v -2.1079330444335938 1.244524359703064 -1.1594486236572266
v -1.9620314836502075 1.244524359703064 -1.0861258506774902
v -1.9557785987854004 1.244524359703064 -1.1911818981170654
v -1.8098775148391724 1.244524359703064 -1.1178590059280396
v -1.8036245107650757 1.244524359703064 -1.2229149341583252
v -1.8872931003570557 1.244524359703064 0.18279510736465454
v -1.881040096282959 1.244524359703064 0.077739126980304718
v -1.8824546337127686 0.94452434778213501 0.10150423645973206
v -1.8762016296386719 0.94452434778213501 -0.0035517513751983643
v -1.8824546337127686 0.94452434778213501 0.10150423645973206
v -1.8762016296386719 0.94452434778213501 -0.0035517513751983643
v -2.0297706127166748 0.94452434778213501 0.051946427673101425
v -2.0235176086425781 0.94452434778213501 -0.053109556436538696
v -2.1770861148834229 0.94452434778213501 0.002388729015365243
v -2.1708331108093262 0.94452434778213501 -0.10266725718975067
v -2.1770861148834229 0.94452434778213501 0.002388729015365243
v -2.1708331108093262 0.94452434778213501 -0.10266725718975067
v -2.1746668815612793 1.0945245027542114 -0.038256753236055374
v -2.1684138774871826 1.0945245027542114 -0.1433127373456955
v -2.1722476482391357 1.244524359703064 -0.078902147710323334
v -2.1659946441650391 1.244524359703064 -0.18395812809467316
v -2.1722476482391357 1.244524359703064 -0.078902147710323334
v -2.1659946441650391 1.244524359703064 -0.18395812809467316
v -2.0200932025909424 1.244524359703064 -0.11063531041145325
v -2.0138401985168457 1.244524359703064 -0.21569129824638367
v -1.8679392337799072 1.244524359703064 -0.14236840605735779
v -1.8616862297058105 1.244524359703064 -0.24742439389228821
v -1.8679392337799072 1.244524359703064 -0.14236840605735779
v -1.8616862297058105 1.244524359703064 -0.24742439389228821
v -1.8631658554077148 0.94452434778213501 -0.2225649505853653
v -1.8569128513336182 0.94452434778213501 -0.32762092351913452
v -1.8631658554077148 0.94452434778213501 -0.2225649505853653
v -1.8569128513336182 0.94452434778213501 -0.32762092351913452
v -2.0104653835296631 0.94452434778213501 -0.27267545461654663
v -2.0042123794555664 0.94452434778213501 -0.37773144245147705
v -2.1577322483062744 0.94452434778213501 -0.32277479767799377
v -2.1514792442321777 0.94452434778213501 -0.42783078551292419
v -2.1577322483062744 0.94452434778213501 -0.32277479767799377
v -2.1514792442321777 0.94452434778213501 -0.42783078551292419
v -2.1528937816619873 1.244524359703064 -0.40406566858291626
v -2.1466407775878906 1.244524359703064 -0.50912165641784668
v -2.1528937816619873 1.244524359703064 -0.40406566858291626
v -2.1466407775878906 1.244524359703064 -0.50912165641784668
v -2.0007393360137939 1.244524359703064 -0.43579882383346558
v -1.9944863319396973 1.244524359703064 -0.540854811668396
v -1.8485852479934692 1.244524359703064 -0.46753191947937012
v -1.8423322439193726 1.244524359703064 -0.57258790731430054
v -1.9260009527206421 1.244524359703064 0.8331221342086792
v -1.9228744506835938 1.244524359703064 0.78059417009353638
v -1.9197479486465454 1.244524359703064 0.72806614637374878
v -1.9235817193984985 1.0945241451263428 0.79247665405273438
v -1.9204552173614502 1.0945241451263428 0.73994868993759155
v -1.9173287153244019 1.0945241451263428 0.68742066621780396
v -1.921162486076355 0.94452434778213501 0.7518312931060791
v -1.9149094820022583 0.94452434778213501 0.64677530527114868
v -1.921162486076355 0.94452434778213501 0.7518312931060791
v -1.9149094820022583 0.94452434778213501 0.64677530527114868
v -2.2157940864562988 0.94452434778213501 0.65271574258804321
v -2.2095410823822021 0.94452434778213501 0.54765975475311279
v -2.2157940864562988 0.94452434778213501 0.65271574258804321
v -2.2095410823822021 0.94452434778213501 0.54765975475311279
v -2.2133748531341553 1.0945245027542114 0.61207026243209839
v -2.2071218490600586 1.0945245027542114 0.50701427459716797
v -2.2109556198120117 1.244524359703064 0.57142490148544312
v -2.204702615737915 1.244524359703064 0.46636888384819031
v -2.2109556198120117 1.244524359703064 0.57142490148544312
v -2.204702615737915 1.244524359703064 0.46636888384819031
v -2.0588011741638184 1.244524359703064 0.5396917462348938
v -2.0525481700897217 1.244524359703064 0.43463572859764099
v -1.9066470861434937 1.244524359703064 0.50795865058898926
v -1.900394082069397 1.244524359703064 0.40290263295173645
v -1.9066470861434937 1.244524359703064 0.50795865058898926
v -1.900394082069397 1.244524359703064 0.40290263295173645
v -1.9018737077713013 0.94452434778213501 0.42776209115982056
v -1.8956207036972046 0.94452434778213501 0.32270610332489014
v -1.9018737077713013 0.94452434778213501 0.42776209115982056
v -1.8956207036972046 0.94452434778213501 0.32270610332489014
v -2.0491733551025391 0.94452434778213501 0.37765157222747803
v -2.0429203510284424 0.94452434778213501 0.27259558439254761
v -2.1964399814605713 0.94452434778213501 0.32755225896835327
v -2.1901872158050537 0.94452434778213501 0.22249625623226166
v -2.1964399814605713 0.94452434778213501 0.32755225896835327
v -2.1901872158050537 0.94452434778213501 0.22249625623226166
v -2.1940207481384277 1.0945245027542114 0.28690674901008606
v -2.1877677440643311 1.0945245027542114 0.18185077607631683
v -2.1916015148162842 1.244524359703064 0.24626137316226959
v -2.1853485107421875 1.244524359703064 0.14120538532733917
v -2.1916015148162842 1.244524359703064 0.24626137316226959
v -2.1853485107421875 1.244524359703064 0.14120538532733917
v -2.0394473075866699 1.244524359703064 0.21452820301055908
v -2.0331943035125732 1.244524359703064 0.10947222262620926
v -1.8872931003570557 1.244524359703064 0.18279510736465454
v -1.881040096282959 1.244524359703064 0.077739126980304718
vt 0.91520184278488159 0.41281089186668396
vt 0.83333331346511841 0.41281089186668396
vt 0.91520184278488159 0.53588306903839111
vt 0.83333331346511841 0.53588306903839111
vt 0.91520184278488159 0.65895509719848633
vt 0.83333331346511841 0.65895509719848633
vt 0.91520184278488159 0
vt 0.83333331346511841 0
vt 0.91520184278488159 0.24614422023296356
vt 0.83333331346511841 0.24614422023296356
vt 0.74853515625 0
vt 0.66666668653488159 0
vt 0.74853515625 0.24614422023296356
vt 0.66666668653488159 0.24614422023296356
vt 0.83186846971511841 0
vt 0.75 0
vt 0.83186846971511841 0.12307215481996536
vt 0.75 0.12307215481996536
vt 0.83186846971511841 0.24614422023296356
vt 0.75 0.24614422023296356
vt 0.081868492066860199 0.3333333432674408
vt 0 0.3333333432674408
vt 0.081868492066860199 0.45560345053672791
vt 0 0.45560345053672791
vt 0.081868492066860199 0.57789981365203857
vt 0 0.57789981365203857
vt 0.33317828178405762 0
vt 0.33317828178405762 0.081868492066860199
vt 0.57955163717269897 0
vt 0.57955163717269897 0.081868492066860199
vt 0.3318684995174408 0.57936465740203857
vt 0.25 0.57936465740203857
vt 0.3318684995174408 0.70176082849502563
vt 0.25 0.70176082849502563
vt 0.3318684995174408 0.82415693998336792
vt 0.25 0.82415693998336792
vt 0 0.083333335816860199
vt 0 0.1652018278837204
vt 0.24614422023296356 0.083333335816860199
vt 0.24614422023296356 0.124267578125
vt 0.24614422023296356 0.1652018278837204
vt 0.99853515625 0.41281089186668396
vt 0.91666668653488159 0.41281089186668396
vt 0.99853515625 0.65895509719848633
vt 0.91666668653488159 0.65895509719848633
vt 0.83186846971511841 0.41281089186668396
vt 0.75 0.41281089186668396
vt 0.83186846971511841 0.53588306903839111
vt 0.75 0.53588306903839111
vt 0.83186846971511841 0.65895509719848633
vt 0.75 0.65895509719848633
vt 0.4152018129825592 0.57947754859924316
vt 0.3333333432674408 0.57947754859924316
vt 0.4152018129825592 0.70181727409362793
vt 0.3333333432674408 0.70181727409362793
vt 0.4152018129825592 0.82415693998336792
vt 0.3333333432674408 0.82415693998336792
vt 0.58186846971511841 0.57947754859924316
vt 0.5 0.57947754859924316
vt 0.58186846971511841 0.70181727409362793
vt 0.5 0.70181727409362793
vt 0.58186846971511841 0.82415693998336792
vt 0.5 0.82415693998336792
vt 0.3318684995174408 0.3333333432674408
vt 0.25 0.3333333432674408
vt 0.3318684995174408 0.57789981365203857
vt 0.25 0.57789981365203857
vt 0.33317828178405762 0.083333335816860199
vt 0.33317828178405762 0.1652018278837204
vt 0.57955163717269897 0.083333335816860199
vt 0.57955163717269897 0.1652018278837204
vt 0.4152018129825592 0.3333333432674408
vt 0.3333333432674408 0.3333333432674408
vt 0.4152018129825592 0.45567306876182556
vt 0.3333333432674408 0.45567306876182556
vt 0.4152018129825592 0.57801270484924316
vt 0.3333333432674408 0.57801270484924316
vt 0 0
vt 0 0.081868492066860199
vt 0.12307215481996536 0
vt 0.12307215481996536 0.081868492066860199
vt 0.24614422023296356 0
vt 0.24614422023296356 0.081868492066860199
vt 0.66520184278488159 0.3333333432674408
vt 0.58333331346511841 0.3333333432674408
vt 0.66520184278488159 0.57801270484924316
vt 0.58333331346511841 0.57801270484924316
vt 0.66520184278488159 0.57947754859924316
vt 0.58333331346511841 0.57947754859924316
vt 0.66520184278488159 0.70181727409362793
vt 0.58333331346511841 0.70181727409362793
vt 0.66520184278488159 0.82415693998336792
vt 0.58333331346511841 0.82415693998336792
vt 0.58186846971511841 0.3333333432674408
vt 0.5 0.3333333432674408
vt 0.58186846971511841 0.45567306876182556
vt 0.5 0.45567306876182556
vt 0.58186846971511841 0.57801270484924316
vt 0.5 0.57801270484924316
vt 0.24853515625 0.57936465740203857
vt 0.1666666716337204 0.57936465740203857
vt 0.24853515625 0.70176082849502563
vt 0.1666666716337204 0.70176082849502563
vt 0.24853515625 0.82415693998336792
vt 0.1666666716337204 0.82415693998336792
vt 0.24853515625 0.3333333432674408
vt 0.1666666716337204 0.3333333432674408
vt 0.24853515625 0.57789981365203857
vt 0.1666666716337204 0.57789981365203857
vt 0.33317828178405762 0.25
vt 0.33317828178405762 0.3318684995174408
vt 0.45637854933738708 0.25
vt 0.45637854933738708 0.3318684995174408
vt 0.57955163717269897 0.25
vt 0.57955163717269897 0.3318684995174408
vt 0.99853515625 0
vt 0.91666668653488159 0
vt 0.99853515625 0.24614422023296356
vt 0.91666668653488159 0.24614422023296356
vt 0.74853515625 0.41281089186668396
vt 0.66666668653488159 0.41281089186668396
vt 0.74853515625 0.53588306903839111
vt 0.66666668653488159 0.53588306903839111
vt 0.74853515625 0.65895509719848633
vt 0.66666668653488159 0.65895509719848633
vt 0.49853515625 0.57947754859924316
vt 0.4576009213924408 0.57947754859924316
vt 0.4166666567325592 0.57947754859924316
vt 0.49853515625 0.70181727409362793
vt 0.4576009213924408 0.70181727409362793
vt 0.4166666567325592 0.70181727409362793
vt 0.49853515625 0.82415693998336792
vt 0.4166666567325592 0.82415693998336792
vt 0.49853515625 0.3333333432674408
vt 0.4166666567325592 0.3333333432674408
vt 0.49853515625 0.57801270484924316
vt 0.4166666567325592 0.57801270484924316
vt 0.081868492066860199 0.57936465740203857
vt 0 0.57936465740203857
vt 0.081868492066860199 0.70176082849502563
vt 0 0.70176082849502563
vt 0.081868492066860199 0.82415693998336792
vt 0 0.82415693998336792
vt 0.1652018278837204 0.57936465740203857
vt 0.083333335816860199 0.57936465740203857
vt 0.1652018278837204 0.70176082849502563
vt 0.083333335816860199 0.70176082849502563
vt 0.1652018278837204 0.82415693998336792
vt 0.083333335816860199 0.82415693998336792
vt 0.1652018278837204 0.3333333432674408
vt 0.083333335816860199 0.3333333432674408
vt 0.1652018278837204 0.57789981365203857
vt 0.083333335816860199 0.57789981365203857
vt 0.33317828178405762 0.1666666716337204
vt 0.33317828178405762 0.24853515625
vt 0.45637854933738708 0.1666666716337204
vt 0.45637854933738708 0.24853515625
vt 0.57955163717269897 0.1666666716337204
vt 0.57955163717269897 0.24853515625
vt 0 0.25
vt 0 0.3318684995174408
vt 0.12307215481996536 0.25
vt 0.12307215481996536 0.3318684995174408
vt 0.24614422023296356 0.25
vt 0.24614422023296356 0.3318684995174408
vt 0 0.1666666716337204
vt 0 0.24853515625
vt 0.12307215481996536 0.1666666716337204
vt 0.12307215481996536 0.24853515625
vt 0.24614422023296356 0.1666666716337204
vt 0.24614422023296356 0.24853515625
vn 0.99823331832885742 0 0.059415422379970551
vn 0.99823331832885742 0 0.059415422379970551
vn 0.99823331832885742 0 0.059415422379970551
vn 0.99823331832885742 0 0.059415422379970551
vn 0.99823331832885742 0 0.059415422379970551
vn 0.99823331832885742 0 0.059415422379970551
vn 0 -1 0
vn 0 -1 0
vn 0 -1 0
vn 0 -1 0
vn -0.99823331832885742 0 -0.059415422379970551
vn -0.99823331832885742 0 -0.059415422379970551
vn -0.99823331832885742 0 -0.059415422379970551
vn -0.99823331832885742 0 -0.059415422379970551
vn 0 1 0
vn 0 1 0
vn 0 1 0
vn 0 1 0
vn 0 1 0
vn 0 1 0
vn 0.99823331832885742 0 0.059415422379970551
vn 0.99823331832885742 0 0.059415422379970551
vn 0.99823331832885742 0 0.059415422379970551
vn 0.99823331832885742 0 0.059415422379970551
vn 0.99823331832885742 0 0.059415422379970551
vn 0.99823331832885742 0 0.059415422379970551
vn 0 -1 0
vn 0 -1 0
vn 0 -1 0
vn 0 -1 0
vn -0.99823331832885742 0 -0.059415422379970551
vn -0.99823331832885742 0 -0.059415422379970551
vn -0.99823331832885742 0 -0.059415422379970551
vn -0.99823331832885742 0 -0.059415422379970551
vn -0.99823331832885742 0 -0.059415422379970551
vn -0.99823331832885742 0 -0.059415422379970551
vn 0 1 0
vn 0 1 0
vn 0 1 0
vn 0 1 0
vn 0 1 0
vn 0.99823331832885742 0 0.059415422379970551
vn 0.99823331832885742 0 0.059415422379970551
vn 0.99823331832885742 0 0.059415422379970551
vn 0.99823331832885742 0 0.059415422379970551
vn 0 -1 0
vn 0 -1 0
vn 0 -1 0
vn 0 -1 0
vn 0 -1 0
vn 0 -1 0
vn -0.99823331832885742 0 -0.059415422379970551
vn -0.99823331832885742 0 -0.059415422379970551
vn -0.99823331832885742 0 -0.059415422379970551
vn -0.99823331832885742 0 -0.059415422379970551
vn -0.99823331832885742 0 -0.059415422379970551
vn -0.99823331832885742 0 -0.059415422379970551
vn 0 1 0
vn 0 1 0
vn 0 1 0
vn 0 1 0
vn 0 1 0
vn 0 1 0
vn 0.99823331832885742 0 0.059415422379970551
vn 0.99823331832885742 0 0.059415422379970551
vn 0.99823331832885742 0 0.059415422379970551
vn 0.99823331832885742 0 0.059415422379970551
vn 0 -1 0
vn 0 -1 0
vn 0 -1 0
vn 0 -1 0
vn -0.99823331832885742 0 -0.059415422379970551
vn -0.99823331832885742 0 -0.059415422379970551
vn -0.99823331832885742 0 -0.059415422379970551
vn -0.99823331832885742 0 -0.059415422379970551
vn -0.99823331832885742 0 -0.059415422379970551
vn -0.99823331832885742 0 -0.059415422379970551
vn 0 1 0
vn 0 1 0
vn 0 1 0
vn 0 1 0
vn 0 1 0
vn 0 1 0
vn 0.99823331832885742 0 0.059415422379970551
vn 0.99823331832885742 0 0.059415422379970551
vn 0.99823331832885742 0 0.059415422379970551
vn 0.99823331832885742 0 0.059415422379970551
vn 0 -1 0
vn 0 -1 0
vn 0 -1 0
vn 0 -1 0
vn 0 -1 0
vn 0 -1 0
vn -0.99823331832885742 0 -0.059415422379970551
vn -0.99823331832885742 0 -0.059415422379970551
vn -0.99823331832885742 0 -0.059415422379970551
vn -0.99823331832885742 0 -0.059415422379970551
vn -0.99823331832885742 0 -0.059415422379970551
vn -0.99823331832885742 0 -0.059415422379970551
vn 0 1 0
vn 0 1 0
vn 0 1 0
vn 0 1 0
vn 0 1 0
vn 0 1 0
vn 0.99823331832885742 0 0.059415422379970551
vn 0.99823331832885742 0 0.059415422379970551
vn 0.99823331832885742 0 0.059415422379970551
vn 0.99823331832885742 0 0.059415422379970551
vn 0 -1 0
vn 0 -1 0
vn 0 -1 0
vn 0 -1 0
vn 0 -1 0
vn 0 -1 0
vn -0.99823331832885742 0 -0.059415422379970551
vn -0.99823331832885742 0 -0.059415422379970551
vn -0.99823331832885742 0 -0.059415422379970551
vn -0.99823331832885742 0 -0.059415422379970551
vn 0 1 0
vn 0 1 0
vn 0 1 0
vn 0 1 0
vn 0 1 0
vn 0 1 0
vn 0.99823331832885742 0 0.059415422379970551
vn 0.99823331832885742 0 0.059415422379970551
vn 0.99823331832885742 0 0.059415422379970551
vn 0.99823331832885742 0 0.059415422379970551
vn 0.99823331832885742 0 0.059415422379970551
vn 0.99823331832885742 0 0.059415422379970551
vn 0.99823331832885742 0 0.059415422379970551
vn 0.99823331832885742 0 0.059415422379970551
vn 0 -1 0
vn 0 -1 0
vn 0 -1 0
vn 0 -1 0
vn -0.99823331832885742 0 -0.059415422379970551
vn -0.99823331832885742 0 -0.059415422379970551
vn -0.99823331832885742 0 -0.059415422379970551
vn -0.99823331832885742 0 -0.059415422379970551
vn -0.99823331832885742 0 -0.059415422379970551
vn -0.99823331832885742 0 -0.059415422379970551
vn 0 1 0
vn 0 1 0
vn 0 1 0
vn 0 1 0
vn 0 1 0
vn 0 1 0
vn 0.99823331832885742 0 0.059415422379970551
vn 0.99823331832885742 0 0.059415422379970551
vn 0.99823331832885742 0 0.059415422379970551
vn 0.99823331832885742 0 0.059415422379970551
vn 0 -1 0
vn 0 -1 0
vn 0 -1 0
vn 0 -1 0
vn 0 -1 0
vn 0 -1 0
vn -0.99823331832885742 0 -0.059415422379970551
vn -0.99823331832885742 0 -0.059415422379970551
vn -0.99823331832885742 0 -0.059415422379970551
vn -0.99823331832885742 0 -0.059415422379970551
vn -0.99823331832885742 0 -0.059415422379970551
vn -0.99823331832885742 0 -0.059415422379970551
vn 0 1 0
vn 0 1 0
vn 0 1 0
vn 0 1 0
vn 0 1 0
vn 0 1 0
f 2/2/2 1/1/1 3/3/3 4/4/4
f 5/5/5 6/6/6 4/4/4 3/3/3
f 8/8/8 7/7/7 9/9/9 10/10/10
f 12/12/12 11/11/11 13/13/13 14/14/14
f 16/16/16 15/15/15 17/17/17 18/18/18
f 19/19/19 20/20/20 18/18/18 17/17/17
f 22/22/22 21/21/21 23/23/23 24/24/24
f 25/25/25 26/26/26 24/24/24 23/23/23
f 28/28/28 27/27/27 29/29/29 30/30/30
f 32/32/32 31/31/31 33/33/33 34/34/34
f 35/35/35 36/36/36 34/34/34 33/33/33
f 40/40/40 38/38/38 37/37/37
f 37/37/37 39/39/39 40/40/40
f 38/38/38 40/40/40 41/41/41
f 43/43/43 42/42/42 44/44/44 45/45/45
f 47/47/47 46/46/46 48/48/48 49/49/49
f 50/50/50 51/51/51 49/49/49 48/48/48
f 53/53/53 52/52/52 54/54/54 55/55/55
f 56/56/56 57/57/57 55/55/55 54/54/54
f 59/59/59 58/58/58 60/60/60 61/61/61
f 62/62/62 63/63/63 61/61/61 60/60/60
f 65/65/65 64/64/64 66/66/66 67/67/67
f 69/69/69 68/68/68 70/70/70 71/71/71
f 73/73/73 72/72/72 74/74/74 75/75/75
f 76/76/76 77/77/77 75/75/75 74/74/74
f 79/79/79 78/78/78 80/80/80 81/81/81
f 82/82/82 83/83/83 81/81/81 80/80/80
f 85/85/85 84/84/84 86/86/86 87/87/87
f 89/89/89 88/88/88 90/90/90 91/91/91
f 92/92/92 93/93/93 91/91/91 90/90/90
f 95/95/95 94/94/94 96/96/96 97/97/97
f 98/98/98 99/99/99 97/97/97 96/96/96
f 101/101/101 100/100/100 102/102/102 103/103/103
f 104/104/104 105/105/105 103/103/103 102/102/102
f 107/107/107 106/106/106 108/108/108 109/109/109
f 111/111/111 110/110/110 112/112/112 113/113/113
f 114/114/114 115/115/115 113/113/113 112/112/112
f 117/117/117 116/116/116 118/118/118 119/119/119
f 121/121/121 120/120/120 122/122/122 123/123/123
f 124/124/124 125/125/125 123/123/123 122/122/122
f 130/130/130 127/127/127 126/126/126 129/129/129
f 131/131/131 128/128/128 127/127/127 130/130/130
f 132/132/132 130/130/130 129/129/129
f 131/131/131 130/130/130 133/133/133
f 132/132/132 133/133/133 130/130/130
f 135/135/135 134/134/134 136/136/136 137/137/137
f 139/139/139 138/138/138 140/140/140 141/141/141
f 142/142/142 143/143/143 141/141/141 140/140/140
f 145/145/145 144/144/144 146/146/146 147/147/147
f 148/148/148 149/149/149 147/147/147 146/146/146
f 151/151/151 150/150/150 152/152/152 153/153/153
f 155/155/155 154/154/154 156/156/156 157/157/157
f 158/158/158 159/159/159 157/157/157 156/156/156
f 161/161/161 160/160/160 162/162/162 163/163/163
f 164/164/164 165/165/165 163/163/163 162/162/162
f 167/167/167 166/166/166 168/168/168 169/169/169
f 170/170/170 171/171/171 169/169/169 168/168/168
